# xmcd
#
# Track frame offsets:
#	150
#	9235
#	21105
#	32011
#	40760
#	52203
#	62450
#	72814
#	84141
#	97082
#	110076
#	123495
#	136656
#	148665
#	158943
#	170526
#	185483
#	197006
#	207568
#	218991
#	229695
#	243856
#	255673
#	268885
#	277897
#	289940
#	301430
#	312006
#
# Disc length: 4291 seconds
# Revision: 0
# Processed by: cddbd v1.5.2PL0 Copyright (c) Steve Scherf et al.
# Submitted via: dBpowerAMP V12.0
#
DISCID=9510c11c
DTITLE=Frankie Laine - Rawhide
DYEAR=2012
DGENRE=Country
TTITLE0=Rawhide
TTITLE1=High Noon
TTITLE2=3:10 To Yuma
TTITLE3=Gunslinger
TTITLE4=Mule Train
TTITLE5=Champion The Wonder Horse
TTITLE6=Gunfight At The OK Corral
TTITLE7=Along The Navajo Trail
TTITLE8=Sixteen Tons
TTITLE9=Bowie Knife
TTITLE10=Cool Water
TTITLE11=Moonlight Gambler
TTITLE12=Hawk Eye
TTITLE13=The Hanging Tree
TTITLE14=Blowin Wild
TTITLE15=The Kid's Last Fight
TTITLE16=Strnge Lady In Town
TTITLE17=Hey Joe
TTITLE18=Where The Winds Blow
TTITLE19=A Woman In Love
TTITLE20=Jezebel
TTITLE21=Anser Me
TTITLE22=Granada
TTITLE23=Sugarbush (With Doris Day)
TTITLE24=Cry Of The Wild Goose
TTITLE25=Rose, Rose I Love You
TTITLE26=Hey Good Lookin' (With Jo Stafford)
TTITLE27=I Believe
EXTD=
EXTT0=
EXTT1=
EXTT2=
EXTT3=
EXTT4=
EXTT5=
EXTT6=
EXTT7=
EXTT8=
EXTT9=
EXTT10=
EXTT11=
EXTT12=
EXTT13=
EXTT14=
EXTT15=
EXTT16=
EXTT17=
EXTT18=
EXTT19=
EXTT20=
EXTT21=
EXTT22=
EXTT23=
EXTT24=
EXTT25=
EXTT26=
EXTT27=
PLAYORDER=
